HIERARCHY
ROOT root
{
	OFFSET	0	13.1	24.9
	CHANNELS 6  Xposition Yposition Zposition Xrotation Yrotation Zrotation
	JOINT spine_1
	{
		OFFSET	0	9.99999	0
		CHANNELS 3  Xrotation Yrotation Zrotation
		JOINT spine_2
		{
			OFFSET	0	112	-10
			CHANNELS 3  Xrotation Yrotation Zrotation
			JOINT spine_3
			{
				OFFSET	0	206.5	19.3
				CHANNELS 3  Xrotation Yrotation Zrotation
				JOINT spine_4
				{
					OFFSET	0	110.4	14.6
					CHANNELS 3  Xrotation Yrotation Zrotation
					JOINT neck_1
					{
						OFFSET	0	71.8	-50.3
						CHANNELS 3  Xrotation Yrotation Zrotation
						JOINT neck_2
						{
							OFFSET	0	86.2	-25.8
							CHANNELS 3  Xrotation Yrotation Zrotation
							JOINT head_ee
							{
								OFFSET	0	179.8	-8.7
								CHANNELS 3  Xrotation Yrotation Zrotation
								End Site
								{
									OFFSET	1	0	0
								}
							}
						}
					}
					JOINT left_clavicle
					{
						OFFSET	-43.2	22.4	-70.8
						CHANNELS 3  Xrotation Yrotation Zrotation
						JOINT left_shoulder
						{
							OFFSET	-93.9	-5.79999	48.7
							CHANNELS 3  Xrotation Yrotation Zrotation
							JOINT left_elbow
							{
								OFFSET	-291.4	-30.8	15.2
								CHANNELS 3  Xrotation Yrotation Zrotation
								JOINT left_lowarm_twist
								{
									OFFSET	-110.7	-3.89999	13.6
									CHANNELS 3  Xrotation Yrotation Zrotation
									JOINT left_hand
									{
										OFFSET	-110.7	-3.89999	13.6
										CHANNELS 3  Xrotation Yrotation Zrotation
										JOINT left_ee
										{
											OFFSET	-80.8	-5.10001	12.1
											CHANNELS 3  Xrotation Yrotation Zrotation
											End Site
											{
												OFFSET	1	0	0
											}
										}
									}
								}
							}
						}
					}
					JOINT right_clavicle
					{
						OFFSET	43.2	22.4	-70.8
						CHANNELS 3  Xrotation Yrotation Zrotation
						JOINT right_shoulder
						{
							OFFSET	93.9	-5.79999	48.7
							CHANNELS 3  Xrotation Yrotation Zrotation
							JOINT right_elbow
							{
								OFFSET	291.4	-30.8	15.2
								CHANNELS 3  Xrotation Yrotation Zrotation
								JOINT right_lowarm_twist
								{
									OFFSET	110.7	-3.89999	13.6
									CHANNELS 3  Xrotation Yrotation Zrotation
									JOINT right_hand
									{
										OFFSET	110.7	-3.89999	13.6
										CHANNELS 3  Xrotation Yrotation Zrotation
										JOINT right_ee
										{
											OFFSET	80.8	-5.10001	12.1
											CHANNELS 3  Xrotation Yrotation Zrotation
											End Site
											{
												OFFSET	1	0	0
											}
										}
									}
								}
							}
						}
					}
				}
			}
		}
	}
	JOINT left_hip
	{
		OFFSET	-82.8	-127.5	0.300001
		CHANNELS 3  Xrotation Yrotation Zrotation
		JOINT left_knee
		{
			OFFSET	-28.2	-396.7	2.2
			CHANNELS 3  Xrotation Yrotation Zrotation
			JOINT left_ankle
			{
				OFFSET	-11.7	-411.3	35.4
				CHANNELS 3  Xrotation Yrotation Zrotation
				JOINT left_toes
				{
					OFFSET	0	-60	-88.6
					CHANNELS 3  Xrotation Yrotation Zrotation
					JOINT left_foot_ee
					{
						OFFSET	-22.5	-16.5	-42.2
						CHANNELS 3  Xrotation Yrotation Zrotation
						End Site
						{
							OFFSET	1	0	0
						}
					}
				}
			}
		}
	}
	JOINT right_hip
	{
		OFFSET	82.8	-127.5	0.300001
		CHANNELS 3  Xrotation Yrotation Zrotation
		JOINT right_knee
		{
			OFFSET	28.2	-396.7	2.2
			CHANNELS 3  Xrotation Yrotation Zrotation
			JOINT right_ankle
			{
				OFFSET	11.7	-411.3	35.4
				CHANNELS 3  Xrotation Yrotation Zrotation
				JOINT right_toes
				{
					OFFSET	0	-60	-88.6
					CHANNELS 3  Xrotation Yrotation Zrotation
					JOINT right_foot_ee
					{
						OFFSET	22.5	-16.5	-42.2
						CHANNELS 3  Xrotation Yrotation Zrotation
						End Site
						{
							OFFSET	1	0	0
						}
					}
				}
			}
		}
	}
}
MOTION
Frames: 9
Frame Time: 0.02
2281.7 688.109 -644.732 120.531 -81.3278 125.969 -1.13782 0.19775 -0.435537 -1.13774 0.225063 -0.422071 -1.13941 0.315955 -0.359124 -1.1395 0.255273 -0.404516 -14.2298 3.49548 -3.40256 -14.2564 8.73606 -2.11459 -0.0 0.0 -0.0 4.90902 22.363 9.52156 -23.8772 -6.15721 60.5015 0.254018 -7.17217 0.0159195 -37.5333 -2.69273 3.87793 4.46296 23.71 38.321 -0.0 0.0 -0.0 10.4259 3.16631 -20.6808 -0.27013 47.3806 -41.3959 3.1568 57.3897 -1.72824 -21.5053 1.23151 -2.44239 -4.43686 -5.69486 27.8227 0.0 0.0 0.0 20.4607 -4.8523 -8.99251 0.668703 -0.0281132 -0.0987649 -1.5042 5.9967 0.221096 25.7708 -0.0 -0.0 -0.0 0.0 -0.0 -28.753 10.0096 -7.69871 3.60777 0.165293 0.528794 32.4187 -1.3773 4.15374 -15.5492 0.0 0.0 0.0 0.0 0.0 
2304.0 685.347 -647.817 121.104 -81.9248 126.606 -0.964096 0.203183 -0.59344 -0.963932 0.240533 -0.579309 -0.966345 0.365579 -0.509715 -0.966598 0.280492 -0.561052 -11.5703 3.58609 -1.88109 -11.5902 8.01297 -0.829291 -0.0 0.0 -0.0 5.07892 23.0136 9.74094 -23.1379 -6.46283 60.4354 0.325267 -9.15346 0.0260374 -35.0823 -2.44399 3.68557 4.55356 23.1802 38.9512 -0.0 0.0 -0.0 10.7246 4.08038 -21.3503 -0.395471 45.6733 -41.4905 3.10936 56.995 -1.68836 -22.8234 1.33585 -2.57517 -4.3481 -8.69214 25.3328 0.0 0.0 0.0 20.7465 -5.2053 -8.57066 -1.0137 0.0404109 0.150315 -10.3964 5.93193 1.55255 26.091 -0.0 -0.0 -0.0 0.0 -0.0 -27.5458 11.0909 -7.21282 0.23649 0.00981016 0.0349653 33.819 0.323386 4.30602 -16.9567 0.0 0.0 0.0 0.0 0.0 
2328.44 686.565 -654.78 125.615 -82.3497 131.113 -0.887636 0.0897728 -0.701586 -0.887372 0.134234 -0.694452 -0.888884 0.287269 -0.646344 -0.889421 0.181588 -0.683599 -10.3424 3.70181 -1.68551 -10.3558 8.10663 -0.696908 -0.0 0.0 -0.0 5.28901 22.7945 10.0483 -22.9334 -7.13094 60.941 0.371695 -10.433 0.033935 -33.9738 -2.33426 3.59513 4.54514 23.0277 38.8633 -0.0 0.0 -0.0 10.7855 4.10322 -21.482 -2.50449 45.5606 -40.6351 3.06205 56.5929 -1.64878 -23.6379 1.40184 -2.656 -4.1446 -8.98468 23.6983 0.0 0.0 0.0 20.059 -5.47859 -8.46146 -2.47029 0.0937999 0.367475 -12.5496 5.23569 1.8802 26.8434 -0.0 -0.0 -0.0 0.0 -0.0 -26.9586 9.76504 -6.82407 -1.6087 -0.0628873 -0.238861 32.0049 0.766968 4.12644 -17.5075 0.0 0.0 0.0 0.0 0.0 
2346.73 694.118 -663.068 131.448 -82.6332 136.75 -0.803078 0.085525 -0.679642 -0.80283 0.128598 -0.672823 -0.804235 0.275978 -0.62695 -0.804742 0.173502 -0.662665 -9.51612 4.03166 -0.765739 -9.53054 8.09716 0.224188 -0.0 0.0 -0.0 5.87666 22.7701 10.8896 -22.3622 -7.48235 60.4672 0.393752 -11.0373 0.0380437 -31.9801 -2.14139 3.42723 4.50533 22.5357 38.4782 -0.0 0.0 -0.0 10.4279 5.08294 -20.7401 -5.6712 43.7335 -39.8398 3.20078 57.7482 -1.76536 -23.8581 1.41988 -2.6777 -3.94606 -9.34683 22.083 0.0 0.0 0.0 19.5267 -5.89254 -7.49038 -3.09779 0.115093 0.461422 -15.553 5.16228 2.33691 27.5198 -0.0 -0.0 -0.0 0.0 -0.0 -26.207 10.1908 -6.35244 -2.90992 -0.108827 -0.433272 30.5503 -2.88672 3.9527 -18.223 0.0 0.0 0.0 0.0 0.0 
2369.92 700.731 -671.738 126.802 -83.6224 131.984 -0.723696 -0.0947507 -0.711216 -0.723416 -0.0493033 -0.715803 -0.722602 0.111195 -0.708831 -0.723303 -0.0021437 -0.717496 -8.22487 4.01058 -0.745502 -8.22989 8.01692 0.149871 -0.0 0.0 -0.0 6.64061 22.7003 11.9957 -21.5944 -8.02108 60.1526 0.429813 -12.02 0.0452511 -31.0638 -2.05474 3.34785 3.80503 22.4018 33.2039 -0.0 0.0 -0.0 10.1573 4.45766 -20.1462 -7.89081 42.0372 -39.277 3.12761 57.1478 -1.70368 -24.3448 1.46005 -2.72541 -3.81145 -9.55863 21.0215 0.0 0.0 0.0 18.2211 -6.12753 -6.48462 -1.71655 0.0668629 0.254936 -19.2686 4.32217 2.90446 27.6682 -0.0 -0.0 -0.0 0.0 -0.0 -25.6507 10.1866 -5.68364 -5.41549 -0.184785 -0.810267 29.3673 -5.28429 3.82053 -18.5833 0.0 0.0 0.0 0.0 0.0 
2388.58 704.559 -676.209 121.526 -84.0295 126.929 -0.701484 -0.313914 -0.938598 -0.70103 -0.253556 -0.956669 -0.696362 -0.034821 -0.989084 -0.697677 -0.190584 -0.971175 -8.82492 4.95127 0.96929 -8.83724 8.6028 2.09544 -0.0 0.0 -0.0 7.13205 22.5562 12.7239 -20.8478 -9.17942 60.4905 0.507297 -14.1065 0.0627673 -30.7842 -2.02856 3.32335 3.16188 23.4185 28.9131 -0.0 0.0 -0.0 10.3532 4.84805 -20.5742 -10.1314 40.5908 -38.8637 3.07173 56.6759 -1.65686 -26.0129 1.60078 -2.88633 -3.77469 -7.84389 21.7583 0.0 0.0 0.0 17.4424 -5.90808 -6.36054 -2.96484 0.110668 0.441499 -15.6875 2.69894 2.36589 28.8563 -0.0 -0.0 -0.0 0.0 -0.0 -25.2843 12.1753 -5.07707 -6.84818 -0.220783 -1.02718 27.3899 -8.36591 3.60479 -19.142 0.0 0.0 0.0 0.0 0.0 
2410.72 708.68 -679.771 121.565 -83.6459 127.042 -0.663841 -0.308261 -1.05608 -0.663253 -0.240439 -1.07355 -0.658227 0.00319115 -1.10014 -0.659876 -0.170585 -1.08684 -7.10082 4.96814 1.71217 -7.09589 8.00051 2.72268 -0.0 0.0 -0.0 7.70504 21.0746 13.7287 -20.4925 -11.5596 60.4473 0.499784 -13.9058 0.060949 -30.3987 -1.99265 3.28936 3.12774 23.9728 28.7958 -0.0 0.0 -0.0 9.59342 5.0674 -18.9568 -11.1856 39.7406 -40.3799 2.99536 56.011 -1.59329 -25.7869 1.58144 -2.86477 -3.09316 -9.66827 16.0681 0.0 0.0 0.0 13.9216 -4.63542 -6.56433 0.669558 -0.0281499 -0.098891 -14.7043 1.88265 2.21941 28.383 -0.0 -0.0 -0.0 0.0 -0.0 -23.8314 9.88856 -4.08013 -10.3128 -0.285327 -1.55484 29.0238 -8.96327 3.78705 -19.8943 0.0 0.0 0.0 0.0 0.0 
2436.87 716.784 -683.608 117.094 -83.7254 123.288 -0.71819 -0.413678 -1.31927 -0.717282 -0.328898 -1.34292 -0.708728 -0.0222412 -1.38242 -0.711314 -0.240269 -1.36157 -8.12194 6.34075 3.33375 -8.10629 9.4935 4.68835 -0.0 0.0 -0.0 8.06882 20.2424 14.3786 -19.6621 -11.778 60.2804 0.544773 -15.1025 0.0722171 -29.4446 -1.90478 3.20424 2.4939 23.7773 24.5906 -0.0 0.0 -0.0 8.63859 0.818117 -16.8936 -10.1334 38.3719 -45.0612 3.10136 56.9276 -1.68165 -27.0661 1.69204 -2.98582 -3.19678 -8.00863 17.6668 0.0 0.0 0.0 11.0706 -3.4556 -6.69594 6.03274 -0.295003 -0.878049 -14.3809 0.520895 2.1768 25.088 -0.0 -0.0 -0.0 0.0 -0.0 -22.435 9.46759 -4.60703 -13.3219 -0.315416 -2.01551 25.6573 -9.13173 3.40985 -21.3513 0.0 0.0 0.0 0.0 0.0 
2458.15 720.977 -686.686 119.495 -83.3799 125.642 -0.749967 -0.469025 -1.40204 -0.748953 -0.378869 -1.42903 -0.738518 -0.0510721 -1.47751 -0.741453 -0.283751 -1.45091 -8.02672 7.16004 4.44312 -7.98985 10.2305 5.95538 -0.0 0.0 -0.0 8.65791 19.6008 15.3783 -18.5638 -11.6375 59.2098 0.593171 -16.375 0.0853459 -27.5462 -1.73425 3.0306 2.34124 23.3374 23.5062 -0.0 0.0 -0.0 8.14863 1.6755 -15.9103 -11.0404 36.7234 -46.9366 2.88295 54.989 -1.50065 -27.2802 1.71082 -3.00583 -3.14004 -9.6949 16.3682 0.0 0.0 0.0 9.5045 -2.44859 -5.72781 6.77642 -0.337739 -0.984046 -10.9129 0.957848 1.64386 23.8737 -0.0 -0.0 -0.0 0.0 -0.0 -20.6008 11.3379 -4.77946 -18.3487 -0.311636 -2.78651 24.7336 -8.06386 3.30073 -21.5509 0.0 0.0 0.0 0.0 0.0 
